# xmcd
#
# Track frame offsets: 
#        150
#        17026
#        28990
#        44026
#        54351
#        67102
#        77553
#        94242
#        106258
#        118845
#
# Disc length: 1731 seconds
#
# Revision: 0
# Processed by: cddbd v1.5.2PL0 Copyright (c) Steve Scherf et al.
# Submitted via: ExactAudioCopy v1.1
#
DISCID=8806c10a
DTITLE=Lewis Family, The - Flyin' High
DYEAR=2006
DGENRE=Bluegrass
TTITLE0=Flyin' High
TTITLE1=What Greater Prize
TTITLE2=My Cross
TTITLE3=A Step Away
TTITLE4=Anywhere You Go
TTITLE5=Mama's Prayers
TTITLE6=The Key To Heaven
TTITLE7=Fight The Good Fight
TTITLE8=Look Beyond This Veil Of Tears
TTITLE9=Those Good Old Country Sundays
EXTD=
EXTT0=
EXTT1=
EXTT2=
EXTT3=
EXTT4=
EXTT5=
EXTT6=
EXTT7=
EXTT8=
EXTT9=
PLAYORDER=
